<?xml version="1.0" encoding="UTF-8" standalone="no"?>
<svg
   data-name="Layer 1"
   viewBox="0 0 90.015739 90.015747"
   x="0px"
   y="0px"
   version="1.1"
   id="svg8"
   width="90.015739"
   height="90.015747"
   fill="%FILLCOLOR%"
   xmlns="http://www.w3.org/2000/svg"
   xmlns:svg="http://www.w3.org/2000/svg">
  <defs
     id="defs12" />
  <title
     id="title2">collection2</title>
  <path
     d="m 89.330324,77.274774 -32.37945,-26.885 a 31.58127,31.58127 0 1 0 -6.5611,6.5611 l 26.885,32.37945 c 3.25296,3.72609 15.78163,-8.80255 12.05555,-12.05555 z m -75.99639,-27.44456 a 25.80672,25.80672 0 1 1 36.49621,0 25.83587,25.83587 0 0 1 -36.49621,0 z"
     id="path4" />
  <path
     d="m 42.851084,13.003984 a 21.54274,21.54274 0 0 0 -5.34961,-2.334 21.7731,21.7731 0 0 0 -21.28467,5.54689 21.17094,21.17094 0 0 0 -3.40381,4.42871 1.99994,1.99994 0 1 0 3.4707,1.98828 17.16487,17.16487 0 0 1 2.76172,-3.58887 17.762,17.762 0 0 1 17.36963,-4.52539 17.53443,17.53443 0 0 1 4.355,1.90039 2,2 0 0 0 2.08106,-3.416 z"
     id="path6" />
</svg>
