<?xml version="1.0" encoding="UTF-8" standalone="no"?>
<svg
   viewBox="0 0 12.587172 22.524515"
   x="0px"
   y="0px"
   version="1.1"
   id="svg10"
   width="12.587172"
   height="22.524515"
   fill="%FILLCOLOR%"
   xmlns="http://www.w3.org/2000/svg"
   xmlns:svg="http://www.w3.org/2000/svg">
  <defs
     id="defs14" />
  <title
     id="title2">web ui 14</title>
  <g
     data-name="Layer 2"
     id="g8"
     transform="translate(-5.7064141,-0.72492331)">
    <path
       d="m 6,16.8 5,6 a 1.25,1.25 0 0 0 1.92,0 l 5,-6 A 1.25,1.25 0 0 0 17.8,15 1.25,1.25 0 0 0 16,15.2 L 12,20.05 8,15.2 A 1.25,1.25 0 0 0 6.2,15 1.25,1.25 0 0 0 6,16.8 Z"
       id="path4" />
    <path
       d="M 7,9.25 A 1.24,1.24 0 0 0 8,8.8 L 12,4 16,8.8 A 1.25,1.25 0 0 0 17.8,9 1.25,1.25 0 0 0 18,7.2 l -5,-6 a 1.29,1.29 0 0 0 -2,0 l -5,6 A 1.25,1.25 0 0 0 6.2,9 1.23,1.23 0 0 0 7,9.25 Z"
       id="path6" />
  </g>
</svg>
