<?xml version="1.0" encoding="UTF-8" standalone="no"?>
<svg
   version="1.1"
   x="0px"
   y="0px"
   viewBox="-949 951 92.199997 95.099998"
   xml:space="preserve"
   id="svg14"
   width="92.199997"
   height="95.099998"
   fill="%FILLCOLOR%"
   xmlns="http://www.w3.org/2000/svg"
   xmlns:svg="http://www.w3.org/2000/svg"
   xmlns:i="http://ns.adobe.com/AdobeIllustrator/10.0/"><defs
     id="defs18" /><switch
     id="switch12"
     transform="translate(-3.9,-2.4)"><foreignObject
       requiredExtensions="http://ns.adobe.com/AdobeIllustrator/10.0/"
       x="0"
       y="0"
       width="1"
       height="1" /><g
       i:extraneous="self"
       id="g10"><g
         id="g8"><path
           d="m -861,962.2 h -7.9 v 8.9 c 0,3.8 -3.1,6.9 -6.9,6.9 -3.8,0 -6.9,-3.1 -6.9,-6.9 v -8.9 h -32.5 v 8.9 c 0,3.8 -3.1,6.9 -6.9,6.9 -3.8,0 -6.9,-3.1 -6.9,-6.9 v -8.9 h -8 c -4.5,0 -8.1,3.6 -8.1,8.1 v 70.1 c 0,4.5 3.6,8.1 8.1,8.1 h 76 c 4.5,0 8.1,-3.6 8.1,-8.1 v -70.1 c 0,-4.5 -3.6,-8.1 -8.1,-8.1 z m 3.4,30.4 v 13.9 H -882 v -13.9 z m -53.7,32.6 v -13.9 h 24.6 v 13.9 z m 24.6,4.7 v 14 h -24.6 v -14 z m -29.3,-4.7 h -24.5 v -13.9 h 24.5 z m 4.7,-18.6 v -13.9 h 24.6 v 13.9 z m 29.3,4.7 h 24.4 v 13.9 H -882 Z m -34,-18.7 v 13.9 h -24.5 v -13.9 z m -24.4,47.8 v -10.5 h 24.5 v 14 h -21 c -2,-0.1 -3.5,-1.6 -3.5,-3.5 z m 79.4,3.4 h -21 v -14 h 24.4 v 10.5 c 0,2 -1.5,3.5 -3.4,3.5 z"
           id="path2" /><path
           d="m -922.1,974.4 c 1.9,0 3.4,-1.5 3.4,-3.4 v -14.2 c 0,-1.9 -1.5,-3.4 -3.4,-3.4 -1.9,0 -3.4,1.5 -3.4,3.4 V 971 c 0,1.9 1.5,3.4 3.4,3.4 z"
           id="path4" /><path
           d="m -875.8,974.4 c 1.9,0 3.4,-1.5 3.4,-3.4 v -14.2 c 0,-1.9 -1.5,-3.4 -3.4,-3.4 -1.9,0 -3.4,1.5 -3.4,3.4 V 971 c 0.1,1.9 1.6,3.4 3.4,3.4 z"
           id="path6" /></g></g></switch></svg>
