<?xml version="1.0" encoding="UTF-8" standalone="no"?>
<svg
   viewBox="-1.6 -3.2 25.021713 16"
   fill="none"
   x="0px"
   y="0px"
   version="1.1"
   id="svg6"
   width="25.021713"
   height="16"
   xmlns="http://www.w3.org/2000/svg"
   xmlns:svg="http://www.w3.org/2000/svg">
  <defs
     id="defs10" />
  <path
     fill-rule="evenodd"
     clip-rule="evenodd"
     d="m 10.910863,0.8 c -2.2091005,0 -4.0000005,1.7909 -4.0000005,4 0,2.2091 1.7909,4 4.0000005,4 2.2091,0 4,-1.7909 4,-4 0,-2.2091 -1.7909,-4 -4,-4 z m -2.0000005,4 c 0,-1.1046 0.8954,-2 2.0000005,-2 1.1046,0 2,0.8954 2,2 0,1.1046 -0.8954,2 -2,2 -1.1046005,0 -2.0000005,-0.8954 -2.0000005,-2 z"
     fill="%FILLCOLOR%"
     id="path2" />
  <path
     fill-rule="evenodd"
     clip-rule="evenodd"
     d="m 10.910863,-3.2 c -6.1528605,0 -10.0802705,3.8397 -11.7930905,5.9773 -0.95703,1.1944 -0.95703,2.851 0,4.0454 1.71282,2.1376 5.64023,5.9773 11.7930905,5.9773 6.152899,0 10.0803,-3.8397 11.7931,-5.9773 0.957,-1.1944 0.957,-2.851 0,-4.0454 C 20.991163,0.6397 17.063762,-3.2 10.910863,-3.2 Z M 0.6785525,4.0279 C 2.2387125,2.0808 5.6530625,-1.2 10.910863,-1.2 c 5.257799,0 8.672199,3.2808 10.2323,5.2279 0.3714,0.4636 0.3714,1.0806 0,1.5442 C 19.583062,7.5192 16.168662,10.8 10.910863,10.8 5.6530625,10.8 2.2387125,7.5192 0.6785525,5.5721 c -0.37141,-0.4636 -0.37141,-1.0806 0,-1.5442 z"
     fill="%FILLCOLOR%"
     id="path4" />
</svg>
